<?xml version="1.0" encoding="UTF-8"?>
<svg width="34px" height="31px" viewBox="0 0 34 31" version="1.1" xmlns="http://www.w3.org/2000/svg" xmlns:xlink="http://www.w3.org/1999/xlink">
    <!-- Generator: Sketch 41.2 (35397) - http://www.bohemiancoding.com/sketch -->
    <title>icon-add</title>
    <desc>Created with Sketch.</desc>
    <defs></defs>
    <g id="Symbols" stroke="none" stroke-width="1" fill="none" fill-rule="evenodd">
        <g id="icon-add" fill="#181818">
            <path d="M22.5234375,17.2148438 L22.5234375,14.2617188 L16.4765625,14.2617188 L16.4765625,8.21484375 L13.5234375,8.21484375 L13.5234375,14.2617188 L7.4765625,14.2617188 L7.4765625,17.2148438 L13.5234375,17.2148438 L13.5234375,23.2617188 L16.4765625,23.2617188 L16.4765625,17.2148438 L22.5234375,17.2148438 Z M15,0.76171875 C17.0625103,0.76171875 19.0078034,1.15429295 20.8359375,1.93945312 C22.6640716,2.7246133 24.2519464,3.7968682 25.5996094,5.15625 C26.9472724,6.5156318 28.0136679,8.10350654 28.7988281,9.91992188 C29.5839883,11.7363372 29.9765625,13.6757709 29.9765625,15.7382812 C29.9765625,17.8242292 29.5839883,19.7753815 28.7988281,21.5917969 C28.0136679,23.4082122 26.9472724,24.996087 25.5996094,26.3554688 C24.2519464,27.7148505 22.669931,28.7812461 20.8535156,29.5546875 C19.0371003,30.3281289 17.0859479,30.7148438 15,30.7148438 C12.9374897,30.7148438 10.9921966,30.3281289 9.1640625,29.5546875 C7.33592836,28.7812461 5.74805361,27.7148505 4.40039062,26.3554688 C3.05272764,24.996087 1.98633205,23.4082122 1.20117188,21.5917969 C0.416011699,19.7753815 0.0234375,17.8242292 0.0234375,15.7382812 C0.0234375,13.6757709 0.416011699,11.7363372 1.20117188,9.91992188 C1.98633205,8.10350654 3.05272764,6.5156318 4.40039062,5.15625 C5.74805361,3.7968682 7.33006904,2.7246133 9.14648438,1.93945312 C10.9628997,1.15429295 12.9140521,0.76171875 15,0.76171875 L15,0.76171875 Z"></path>
        </g>
    </g>
</svg>