<?xml version="1.0" encoding="UTF-8"?>
<svg width="35px" height="28px" viewBox="0 0 35 28" version="1.1" xmlns="http://www.w3.org/2000/svg" xmlns:xlink="http://www.w3.org/1999/xlink">
    <!-- Generator: Sketch 41.2 (35397) - http://www.bohemiancoding.com/sketch -->
    <title>icon-rss</title>
    <desc>Created with Sketch.</desc>
    <defs></defs>
    <g id="Symbols" stroke="none" stroke-width="1" fill="none" fill-rule="evenodd">
        <g id="icon-rss" fill="#181818">
            <path d="M6.5234375,13.5117188 C7.97656977,12.0820241 9.61717836,11.0039099 11.4453125,10.2773438 C13.2734466,9.55077762 15.1367093,9.1875 17.0351562,9.1875 C18.9336032,9.1875 20.7851472,9.55077762 22.5898438,10.2773438 C24.3945403,11.0039099 26.0234302,12.0820241 27.4765625,13.5117188 L24.5234375,16.5351562 C23.4921823,15.5039011 22.3203191,14.7304713 21.0078125,14.2148438 C19.6953059,13.6992162 18.3593818,13.4414062 17,13.4414062 C15.6406182,13.4414062 14.3046941,13.6992162 12.9921875,14.2148438 C11.6796809,14.7304713 10.5078177,15.5039011 9.4765625,16.5351562 L6.5234375,13.5117188 Z M12.5,19.5585938 C13.7187561,18.3398377 15.2128818,17.7304688 16.9824219,17.7304688 C18.751962,17.7304688 20.2578063,18.3398377 21.5,19.5585938 L17,24.0585938 L12.5,19.5585938 Z M0.4765625,7.53515625 C2.75001137,5.285145 5.32811059,3.59180256 8.2109375,2.45507812 C11.0937644,1.31835369 14.0292819,0.75 17.0175781,0.75 C20.0058743,0.75 22.9355325,1.31835369 25.8066406,2.45507812 C28.6777487,3.59180256 31.2499886,5.285145 33.5234375,7.53515625 L30.5,10.5585938 C28.6484282,8.70702199 26.5449337,7.31250469 24.1894531,6.375 C21.8339726,5.43749531 19.4375122,4.96875 17,4.96875 C14.5624878,4.96875 12.1718867,5.43749531 9.828125,6.375 C7.48436328,7.31250469 5.37500937,8.70702199 3.5,10.5585938 L0.4765625,7.53515625 Z"></path>
        </g>
    </g>
</svg>