<?xml version="1.0" encoding="UTF-8"?>
<svg width="35px" height="29px" viewBox="0 0 35 29" version="1.1" xmlns="http://www.w3.org/2000/svg" xmlns:xlink="http://www.w3.org/1999/xlink">
    <!-- Generator: Sketch 41.2 (35397) - http://www.bohemiancoding.com/sketch -->
    <title>icon-img</title>
    <desc>Created with Sketch.</desc>
    <defs></defs>
    <g id="Symbols" stroke="none" stroke-width="1" fill="none" fill-rule="evenodd">
        <g id="icon-img" fill="#181818">
            <path d="M6.046875,21.2734375 L27,21.2734375 L20.25,12.2734375 L15.046875,19.0234375 L11.25,14.5234375 L6.046875,21.2734375 Z M30.0234375,0.25 C30.7500036,0.25 31.4355437,0.572262402 32.0800781,1.21679688 C32.7246126,1.86133135 33.046875,2.54687137 33.046875,3.2734375 L33.046875,24.2265625 C33.046875,24.9765663 32.7304719,25.6679656 32.0976562,26.3007812 C31.4648406,26.9335969 30.7734412,27.25 30.0234375,27.25 L3.0234375,27.25 C2.22655852,27.25 1.52344055,26.9511749 0.9140625,26.3535156 C0.304684453,25.7558564 0,25.0468791 0,24.2265625 L0,3.2734375 C0,2.54687137 0.316403086,1.86133135 0.94921875,1.21679688 C1.58203441,0.572262402 2.27343375,0.25 3.0234375,0.25 L30.0234375,0.25 Z"></path>
        </g>
    </g>
</svg>