<?xml version="1.0" encoding="UTF-8"?>
<svg width="34px" height="32px" viewBox="0 0 34 32" version="1.1" xmlns="http://www.w3.org/2000/svg" xmlns:xlink="http://www.w3.org/1999/xlink">
    <!-- Generator: Sketch 41.2 (35397) - http://www.bohemiancoding.com/sketch -->
    <title>icon-email</title>
    <desc>Created with Sketch.</desc>
    <defs></defs>
    <g id="Symbols" stroke="none" stroke-width="1" fill="none" fill-rule="evenodd">
        <g id="icon-email" fill="#181818">
            <path d="M15,18.2148438 L27.375,10.4804688 L15,3.23828125 L2.625,10.4804688 L15,18.2148438 Z M29.9765625,10.7617188 L29.9765625,25.7382812 C29.9765625,26.5585979 29.689456,27.2675751 29.1152344,27.8652344 C28.5410128,28.4628936 27.8437541,28.7617188 27.0234375,28.7617188 L2.9765625,28.7617188 C2.17968352,28.7617188 1.48828418,28.4628936 0.90234375,27.8652344 C0.31640332,27.2675751 0.0234375,26.5585979 0.0234375,25.7382812 L0.0234375,10.7617188 C0.0234375,10.2460912 0.152342461,9.74804928 0.41015625,9.26757812 C0.667970039,8.78710697 1.00781039,8.41797004 1.4296875,8.16015625 L15,0.21484375 L28.5703125,8.16015625 C28.9921896,8.41797004 29.33203,8.78710697 29.5898438,9.26757812 C29.8476575,9.74804928 29.9765625,10.2460912 29.9765625,10.7617188 L29.9765625,10.7617188 Z"></path>
        </g>
    </g>
</svg>