<?xml version="1.0" encoding="UTF-8"?>
<svg width="30px" height="30px" viewBox="0 0 30 30" version="1.1" xmlns="http://www.w3.org/2000/svg" xmlns:xlink="http://www.w3.org/1999/xlink">
    <!-- Generator: Sketch 41.2 (35397) - http://www.bohemiancoding.com/sketch -->
    <title>icon-alert</title>
    <desc>Created with Sketch.</desc>
    <defs></defs>
    <g id="Symbols" stroke="none" stroke-width="1" fill="none" fill-rule="evenodd">
        <g id="icon-alert" fill="#181818">
            <path d="M16.4765625,16.4648438 L16.4765625,7.46484375 L13.5234375,7.46484375 L13.5234375,16.4648438 L16.4765625,16.4648438 Z M16.4765625,22.5117188 L16.4765625,19.4882812 L13.5234375,19.4882812 L13.5234375,22.5117188 L16.4765625,22.5117188 Z M15,0.01171875 C17.0625103,0.01171875 19.0078034,0.404292949 20.8359375,1.18945312 C22.6640716,1.9746133 24.2519464,3.0468682 25.5996094,4.40625 C26.9472724,5.7656318 28.0136679,7.35350654 28.7988281,9.16992188 C29.5839883,10.9863372 29.9765625,12.9257709 29.9765625,14.9882812 C29.9765625,17.0742292 29.5839883,19.0253815 28.7988281,20.8417969 C28.0136679,22.6582122 26.9472724,24.246087 25.5996094,25.6054688 C24.2519464,26.9648505 22.669931,28.0312461 20.8535156,28.8046875 C19.0371003,29.5781289 17.0859479,29.9648438 15,29.9648438 C12.9374897,29.9648438 10.9921966,29.5781289 9.1640625,28.8046875 C7.33592836,28.0312461 5.74805361,26.9648505 4.40039062,25.6054688 C3.05272764,24.246087 1.98633205,22.6582122 1.20117188,20.8417969 C0.416011699,19.0253815 0.0234375,17.0742292 0.0234375,14.9882812 C0.0234375,12.9257709 0.416011699,10.9863372 1.20117188,9.16992188 C1.98633205,7.35350654 3.05272764,5.7656318 4.40039062,4.40625 C5.74805361,3.0468682 7.33006904,1.9746133 9.14648438,1.18945312 C10.9628997,0.404292949 12.9140521,0.01171875 15,0.01171875 L15,0.01171875 Z"></path>
        </g>
    </g>
</svg>