<?xml version="1.0" encoding="UTF-8"?>
<svg width="31px" height="33px" viewBox="0 0 31 33" version="1.1" xmlns="http://www.w3.org/2000/svg" xmlns:xlink="http://www.w3.org/1999/xlink">
    <!-- Generator: Sketch 41.2 (35397) - http://www.bohemiancoding.com/sketch -->
    <title>icon-lock</title>
    <desc>Created with Sketch.</desc>
    <defs></defs>
    <g id="Symbols" stroke="none" stroke-width="1" fill="none" fill-rule="evenodd">
        <g id="icon-lock" fill="#181818">
            <path d="M21.0234375,29.3789062 L21.0234375,14.3320312 L3.0234375,14.3320312 L3.0234375,29.3789062 L21.0234375,29.3789062 Z M7.3828125,8.35546875 L7.3828125,11.3789062 L16.6640625,11.3789062 L16.6640625,8.35546875 C16.6640625,7.08983742 16.2070358,6.00000457 15.2929688,5.0859375 C14.3789017,4.17187043 13.2890688,3.71484375 12.0234375,3.71484375 C10.7578062,3.71484375 9.66797332,4.17187043 8.75390625,5.0859375 C7.83983918,6.00000457 7.3828125,7.08983742 7.3828125,8.35546875 L7.3828125,8.35546875 Z M21.0234375,11.3789062 C21.8203165,11.3789062 22.5234345,11.6718721 23.1328125,12.2578125 C23.7421905,12.8437529 24.046875,13.5351523 24.046875,14.3320312 L24.046875,29.3789062 C24.046875,30.1992229 23.7480499,30.8964815 23.1503906,31.4707031 C22.5527314,32.0449247 21.8437541,32.3320312 21.0234375,32.3320312 L3.0234375,32.3320312 C2.22655852,32.3320312 1.52344055,32.0449247 0.9140625,31.4707031 C0.304684453,30.8964815 0,30.1992229 0,29.3789062 L0,14.3320312 C0,13.5351523 0.298825137,12.8437529 0.896484375,12.2578125 C1.49414361,11.6718721 2.2031209,11.3789062 3.0234375,11.3789062 L4.5,11.3789062 L4.5,8.35546875 C4.5,7.32421359 4.69921676,6.35156707 5.09765625,5.4375 C5.49609574,4.52343293 6.03515285,3.7265659 6.71484375,3.046875 C7.39453465,2.3671841 8.19140168,1.82812699 9.10546875,1.4296875 C10.0195358,1.03124801 10.9921823,0.83203125 12.0234375,0.83203125 C13.0546927,0.83203125 14.0273392,1.03124801 14.9414062,1.4296875 C15.8554733,1.82812699 16.6523404,2.3671841 17.3320312,3.046875 C18.0117221,3.7265659 18.5507793,4.52343293 18.9492188,5.4375 C19.3476582,6.35156707 19.546875,7.32421359 19.546875,8.35546875 L19.546875,11.3789062 L21.0234375,11.3789062 Z M12.0234375,24.8789062 C11.2265585,24.8789062 10.5234405,24.5800811 9.9140625,23.9824219 C9.30468445,23.3847626 9,22.6757854 9,21.8554688 C9,21.0585898 9.29882514,20.3554718 9.89648438,19.7460938 C10.4941436,19.1367157 11.2031209,18.8320312 12.0234375,18.8320312 C12.8203165,18.8320312 13.5234345,19.1367157 14.1328125,19.7460938 C14.7421905,20.3554718 15.046875,21.0585898 15.046875,21.8554688 C15.046875,22.6757854 14.7480499,23.3847626 14.1503906,23.9824219 C13.5527314,24.5800811 12.8437541,24.8789062 12.0234375,24.8789062 L12.0234375,24.8789062 Z"></path>
        </g>
    </g>
</svg>