<?xml version="1.0" encoding="UTF-8"?>
<svg width="29px" height="25px" viewBox="0 0 29 25" version="1.1" xmlns="http://www.w3.org/2000/svg" xmlns:xlink="http://www.w3.org/1999/xlink">
    <!-- Generator: Sketch 41.2 (35397) - http://www.bohemiancoding.com/sketch -->
    <title>icon-list-ol</title>
    <desc>Created with Sketch.</desc>
    <defs></defs>
    <g id="Symbols" stroke="none" stroke-width="1" fill="none" fill-rule="evenodd">
        <g id="icon-list-ol" fill="#181818">
            <path d="M7.453125,13.5 L7.453125,10.546875 L28.4765625,10.546875 L28.4765625,13.5 L7.453125,13.5 Z M7.453125,22.5 L7.453125,19.546875 L28.4765625,19.546875 L28.4765625,22.5 L7.453125,22.5 Z M7.453125,1.546875 L28.4765625,1.546875 L28.4765625,4.5 L7.453125,4.5 L7.453125,1.546875 Z M0,10.546875 L0,9 L4.5,9 L4.5,10.40625 L1.7578125,13.5 L4.5,13.5 L4.5,15.046875 L0,15.046875 L0,13.640625 L2.671875,10.546875 L0,10.546875 Z M1.4765625,6.046875 L1.4765625,1.546875 L0,1.546875 L0,0 L2.953125,0 L2.953125,6.046875 L1.4765625,6.046875 Z M0,19.546875 L0,18 L4.5,18 L4.5,24.046875 L0,24.046875 L0,22.5 L2.953125,22.5 L2.953125,21.796875 L1.4765625,21.796875 L1.4765625,20.25 L2.953125,20.25 L2.953125,19.546875 L0,19.546875 Z"></path>
        </g>
    </g>
</svg>