<?xml version="1.0" encoding="UTF-8"?>
<svg width="30px" height="29px" viewBox="0 0 30 29" version="1.1" xmlns="http://www.w3.org/2000/svg" xmlns:xlink="http://www.w3.org/1999/xlink">
    <!-- Generator: Sketch 41.2 (35397) - http://www.bohemiancoding.com/sketch -->
    <title>icon-heart</title>
    <desc>Created with Sketch.</desc>
    <defs></defs>
    <g id="Symbols" stroke="none" stroke-width="1" fill="none" fill-rule="evenodd">
        <g id="icon-heart" fill="#181818">
            <path d="M25.89,1.11 C27.1500063,1.8500037 28.1499963,2.8499937 28.89,4.11 C29.6300037,5.3700063 30,6.7499925 30,8.25 C30,10.9100133 28.8900111,13.739985 26.67,16.74 C24.4499889,19.740015 21.9500139,22.4899875 19.17,24.99 C16.3899861,27.4900125 15,28.6600008 15,28.5 C15,28.6600008 13.6100139,27.4900125 10.83,24.99 C8.0499861,22.4899875 5.5500111,19.740015 3.33,16.74 C1.1099889,13.739985 0,10.9100133 0,8.25 C0,6.7499925 0.3699963,5.3700063 1.11,4.11 C1.8500037,2.8499937 2.8499937,1.8500037 4.11,1.11 C5.3700063,0.3699963 6.7499925,0 8.25,0 C9.6300069,0 10.9099941,0.31499685 12.09,0.945 C13.2700059,1.57500315 14.2399962,2.4299946 15,3.51 C15.7600038,2.4299946 16.7299941,1.57500315 17.91,0.945 C19.0900059,0.31499685 20.3699931,0 21.75,0 C23.2500075,0 24.6299937,0.3699963 25.89,1.11 Z M20.64,19.365 C22.4600091,17.4149902 23.9749939,15.4550098 25.185,13.485 C26.3950061,11.5149901 27,9.7700076 27,8.25 C27,7.3099953 26.7650024,6.43500405 26.295,5.625 C25.8249977,4.81499595 25.1850041,4.17500235 24.375,3.705 C23.5649959,3.23499765 22.6900047,3 21.75,3 C20.949996,3 20.2450031,3.17499825 19.635,3.525 C19.024997,3.87500175 18.3000042,4.449996 17.46,5.25 L15,7.5 L12.54,5.25 C11.6999958,4.449996 10.975003,3.87500175 10.365,3.525 C9.75499695,3.17499825 9.050004,3 8.25,3 C7.3099953,3 6.43500405,3.23499765 5.625,3.705 C4.81499595,4.17500235 4.17500235,4.81499595 3.705,5.625 C3.23499765,6.43500405 3,7.3099953 3,8.25 C3,9.7700076 3.60499395,11.5149901 4.815,13.485 C6.02500605,15.4550098 7.5399909,17.4149902 9.36,19.365 C11.1800091,21.3150097 13.0599903,23.089992 15,24.69 C16.9400097,23.089992 18.8199909,21.3150097 20.64,19.365 Z"></path>
        </g>
    </g>
</svg>