<?xml version="1.0" encoding="UTF-8"?>
<svg width="35px" height="29px" viewBox="0 0 35 29" version="1.1" xmlns="http://www.w3.org/2000/svg" xmlns:xlink="http://www.w3.org/1999/xlink">
    <!-- Generator: Sketch 41.2 (35397) - http://www.bohemiancoding.com/sketch -->
    <title>icon-screen</title>
    <desc>Created with Sketch.</desc>
    <defs></defs>
    <g id="Symbols" stroke="none" stroke-width="1" fill="none" fill-rule="evenodd">
        <g id="icon-screen" fill="#181818">
            <path d="M30.5,0.48828125 C31.296879,0.48828125 31.999997,0.792965703 32.609375,1.40234375 C33.218753,2.0117218 33.5234375,2.71483977 33.5234375,3.51171875 L33.5234375,21.5117188 C33.5234375,22.3320354 33.2246124,23.029294 32.6269531,23.6035156 C32.0292939,24.1777372 31.3203166,24.4648438 30.5,24.4648438 L24.5234375,24.4648438 L24.5234375,21.5117188 L30.5,21.5117188 L30.5,3.51171875 L3.5,3.51171875 L3.5,21.5117188 L9.4765625,21.5117188 L9.4765625,24.4648438 L3.5,24.4648438 C2.70312102,24.4648438 2.00000305,24.1777372 1.390625,23.6035156 C0.781246953,23.029294 0.4765625,22.3320354 0.4765625,21.5117188 L0.4765625,3.51171875 C0.4765625,2.71483977 0.775387637,2.0117218 1.37304688,1.40234375 C1.97070611,0.792965703 2.6796834,0.48828125 3.5,0.48828125 L30.5,0.48828125 Z M8,28.9648438 L17,19.9648438 L26,28.9648438 L8,28.9648438 Z"></path>
        </g>
    </g>
</svg>