<?xml version="1.0" encoding="UTF-8"?>
<svg width="28px" height="33px" viewBox="0 0 28 33" version="1.1" xmlns="http://www.w3.org/2000/svg" xmlns:xlink="http://www.w3.org/1999/xlink">
    <!-- Generator: Sketch 41.2 (35397) - http://www.bohemiancoding.com/sketch -->
    <title>icon-location</title>
    <desc>Created with Sketch.</desc>
    <defs></defs>
    <g id="Symbols" stroke="none" stroke-width="1" fill="none" fill-rule="evenodd">
        <g id="icon-location" fill="#181818">
            <path d="M13.7187369,32.2499695 L15.8593599,30.3280963 C17.286442,29.0468475 18.859357,27.4530991 20.5781054,25.5468509 C22.2968537,23.6406027 23.8697687,21.5937296 25.2968509,19.4062317 C26.723933,17.2187338 27.4374738,15.2187357 27.4374738,13.4062375 C27.4374738,11.5729057 27.0780992,9.85936584 26.3593499,8.26561736 C25.6406005,6.67186888 24.661435,5.2812452 23.4218527,4.09374633 C22.1822704,2.90624747 20.7291467,1.96874836 19.0624818,1.28124902 C17.3958169,0.593749672 15.6145686,0.25 13.7187369,0.25 C11.8229052,0.25 10.0416569,0.593749672 8.37499201,1.28124902 C6.70832709,1.96874836 5.25520348,2.90624747 4.01562117,4.09374633 C2.77603886,5.2812452 1.79687329,6.67186888 1.07812397,8.26561736 C0.359374657,9.85936584 0,11.5729057 0,13.4062375 C0,15.2187357 0.713540827,17.2187338 2.14062296,19.4062317 C3.56770509,21.5937296 5.1406201,23.6406027 6.85936846,25.5468509 C8.57811682,27.4530991 10.1510318,29.0468475 11.578114,30.3280963 L13.7187369,32.2499695 Z M13.7187369,9.3749913 C14.9895692,9.3749913 16.0729012,9.82290738 16.9687338,10.71874 C17.8645665,11.6145727 18.3124825,12.6979046 18.3124825,13.9687369 C18.3124825,15.2395692 17.8645665,16.3229012 16.9687338,17.2187338 C16.0729012,18.1145665 14.9895692,18.5624825 13.7187369,18.5624825 C12.4479046,18.5624825 11.3645727,18.1145665 10.46874,17.2187338 C9.57290738,16.3229012 9.1249913,15.2395692 9.1249913,13.9687369 C9.1249913,12.6979046 9.57290738,11.6145727 10.46874,10.71874 C11.3645727,9.82290738 12.4479046,9.3749913 13.7187369,9.3749913 L13.7187369,9.3749913 Z"></path>
        </g>
    </g>
</svg>