<?xml version="1.0" encoding="UTF-8"?>
<svg width="31px" height="32px" viewBox="0 0 31 32" version="1.1" xmlns="http://www.w3.org/2000/svg" xmlns:xlink="http://www.w3.org/1999/xlink">
    <!-- Generator: Sketch 41.2 (35397) - http://www.bohemiancoding.com/sketch -->
    <title>icon-advance</title>
    <desc>Created with Sketch.</desc>
    <defs></defs>
    <g id="Symbols" stroke="none" stroke-width="1" fill="none" fill-rule="evenodd">
        <g id="icon-advance" fill="#181818">
            <path d="M20.3125,22.1914062 C20.7343771,21.6289034 21.0683581,21.0371125 21.3144531,20.4160156 C21.5605481,19.7949188 21.7421869,19.1445346 21.859375,18.4648438 L24.8828125,18.4648438 C24.7421868,19.5195365 24.4785176,20.5390576 24.0917969,21.5234375 C23.7050762,22.5078174 23.1718784,23.4335894 22.4921875,24.3007812 L20.3125,22.1914062 Z M14.4765625,25.8476562 C15.1328158,25.7539058 15.7773406,25.5781263 16.4101562,25.3203125 C17.0429719,25.0624987 17.6406222,24.7226584 18.203125,24.3007812 L20.3828125,26.4804688 C19.5156207,27.1601596 18.57813,27.6933574 17.5703125,28.0800781 C16.562495,28.4667988 15.5312553,28.730468 14.4765625,28.8710938 L14.4765625,25.8476562 Z M24.8828125,15.5117188 L21.859375,15.5117188 C21.7656245,14.8554655 21.589845,14.2109407 21.3320312,13.578125 C21.0742175,12.9453093 20.7343771,12.3476591 20.3125,11.7851562 L22.4921875,9.67578125 C23.1484408,10.5664107 23.6757793,11.498042 24.0742188,12.4707031 C24.4726582,13.4433642 24.7421868,14.457026 24.8828125,15.5117188 L24.8828125,15.5117188 Z M18.34375,7.28515625 L11.5234375,13.9648438 L11.5234375,8.12890625 C10.4453071,8.31640719 9.44922332,8.67382549 8.53515625,9.20117188 C7.62108918,9.72851826 6.83008146,10.3847617 6.16210938,11.1699219 C5.49413729,11.9550821 4.96679881,12.8456981 4.58007812,13.8417969 C4.19335744,14.8378956 4,15.8867132 4,16.9882812 C4,18.1132869 4.19335744,19.1738231 4.58007812,20.1699219 C4.96679881,21.1660206 5.49413729,22.0566367 6.16210938,22.8417969 C6.83008146,23.6269571 7.62108918,24.2832005 8.53515625,24.8105469 C9.44922332,25.3378933 10.4453071,25.6835929 11.5234375,25.8476562 L11.5234375,28.8710938 C10.0468676,28.7070304 8.66992826,28.2793003 7.39257812,27.5878906 C6.11522799,26.8964809 5.00195787,26.0234428 4.05273438,24.96875 C3.10351088,23.9140572 2.35351838,22.707038 1.80273438,21.3476562 C1.25195037,19.9882745 0.9765625,18.535164 0.9765625,16.9882812 C0.9765625,15.4648361 1.24609105,14.0234443 1.78515625,12.6640625 C2.32422145,11.3046807 3.06835463,10.0918022 4.01757812,9.02539062 C4.96680162,7.95897904 6.08593105,7.0859409 7.375,6.40625 C8.66406895,5.7265591 10.0468676,5.29296969 11.5234375,5.10546875 L11.5234375,0.46484375 L18.34375,7.28515625 Z"></path>
        </g>
    </g>
</svg>