<?xml version="1.0" encoding="UTF-8"?>
<svg width="36px" height="28px" viewBox="0 0 36 28" version="1.1" xmlns="http://www.w3.org/2000/svg" xmlns:xlink="http://www.w3.org/1999/xlink">
    <!-- Generator: Sketch 41.2 (35397) - http://www.bohemiancoding.com/sketch -->
    <title>icon-devices</title>
    <desc>Created with Sketch.</desc>
    <defs></defs>
    <g id="Symbols" stroke="none" stroke-width="1" fill="none" fill-rule="evenodd">
        <g id="icon-devices" fill="#181818">
            <path d="M32.9765625,20.5117188 L32.9765625,9.96484375 L27,9.96484375 L27,20.5117188 L32.9765625,20.5117188 Z M34.5234375,7.01171875 C34.9453146,7.01171875 35.2968736,7.15234234 35.578125,7.43359375 C35.8593764,7.71484516 36,8.06640414 36,8.48828125 L36,23.4648438 C36,23.8867209 35.8593764,24.2499985 35.578125,24.5546875 C35.2968736,24.8593765 34.9453146,25.0117188 34.5234375,25.0117188 L25.5234375,25.0117188 C25.1015604,25.0117188 24.7382828,24.8593765 24.4335938,24.5546875 C24.1289047,24.2499985 23.9765625,23.8867209 23.9765625,23.4648438 L23.9765625,8.48828125 C23.9765625,8.06640414 24.1289047,7.71484516 24.4335938,7.43359375 C24.7382828,7.15234234 25.1015604,7.01171875 25.5234375,7.01171875 L34.5234375,7.01171875 Z M5.9765625,3.98828125 L5.9765625,20.5117188 L21.0234375,20.5117188 L21.0234375,25.0117188 L0,25.0117188 L0,20.5117188 L3.0234375,20.5117188 L3.0234375,3.98828125 C3.0234375,3.19140227 3.310544,2.4882843 3.88476562,1.87890625 C4.45898725,1.2695282 5.1562459,0.96484375 5.9765625,0.96484375 L32.9765625,0.96484375 L32.9765625,3.98828125 L5.9765625,3.98828125 Z"></path>
        </g>
    </g>
</svg>