<?xml version="1.0" encoding="UTF-8"?>
<svg width="36px" height="28px" viewBox="0 0 36 28" version="1.1" xmlns="http://www.w3.org/2000/svg" xmlns:xlink="http://www.w3.org/1999/xlink">
    <!-- Generator: Sketch 41.2 (35397) - http://www.bohemiancoding.com/sketch -->
    <title>icon-cloud-confirmation</title>
    <desc>Created with Sketch.</desc>
    <defs></defs>
    <g id="Symbols" stroke="none" stroke-width="1" fill="none" fill-rule="evenodd">
        <g id="icon-cloud-confirmation" fill="#181818">
            <path d="M14.9765625,20.046875 L24.890625,10.1328125 L22.78125,8.0234375 L14.9765625,15.7578125 L11.8828125,12.6640625 L9.7734375,14.7734375 L14.9765625,20.046875 Z M29.0390625,9.5703125 C30.0000048,9.64062535 30.9023395,9.88671664 31.7460938,10.3085938 C32.589848,10.7304709 33.3281218,11.2753873 33.9609375,11.9433594 C34.5937532,12.6113315 35.0917951,13.3789019 35.4550781,14.2460938 C35.8183612,15.1132856 36,16.0390576 36,17.0234375 C36,18.0781303 35.8007832,19.0624954 35.4023438,19.9765625 C35.0039043,20.8906296 34.4648471,21.6874966 33.7851562,22.3671875 C33.1054654,23.0468784 32.3085983,23.5800762 31.3945312,23.9667969 C30.4804642,24.3535176 29.5078177,24.546875 28.4765625,24.546875 L9,24.546875 C7.75780629,24.546875 6.58594301,24.3125023 5.484375,23.84375 C4.38280699,23.3749977 3.42773842,22.7363322 2.61914062,21.9277344 C1.81054283,21.1191366 1.17187734,20.1699273 0.703125,19.0800781 C0.234372656,17.9902289 0,16.8125063 0,15.546875 C0,14.3984318 0.205076074,13.3085989 0.615234375,12.2773438 C1.02539268,11.2460886 1.59374637,10.3320352 2.3203125,9.53515625 C3.04687863,8.73827727 3.89647951,8.08789314 4.86914062,7.58398438 C5.84180174,7.08007561 6.89061937,6.7578132 8.015625,6.6171875 C8.48437734,5.72655805 9.06444967,4.90625375 9.75585938,4.15625 C10.4472691,3.40624625 11.2206988,2.76172145 12.0761719,2.22265625 C12.9316449,1.68359105 13.8574169,1.26172027 14.8535156,0.95703125 C15.8496144,0.652342227 16.898432,0.5 18,0.5 C19.3593818,0.5 20.6542907,0.72851334 21.8847656,1.18554688 C23.1152405,1.64258041 24.216792,2.27538658 25.1894531,3.08398438 C26.1621142,3.89258217 26.9824185,4.85351006 27.6503906,5.96679688 C28.3183627,7.08008369 28.7812487,8.28124355 29.0390625,9.5703125 L29.0390625,9.5703125 Z"></path>
        </g>
    </g>
</svg>