<?xml version="1.0" encoding="UTF-8"?>
<svg width="34px" height="30px" viewBox="0 0 34 30" version="1.1" xmlns="http://www.w3.org/2000/svg" xmlns:xlink="http://www.w3.org/1999/xlink">
    <!-- Generator: Sketch 41.2 (35397) - http://www.bohemiancoding.com/sketch -->
    <title>icon-alert-outline</title>
    <desc>Created with Sketch.</desc>
    <defs></defs>
    <g id="Symbols" stroke="none" stroke-width="1" fill="none" fill-rule="evenodd">
        <g id="icon-alert-outline" fill="#181818">
            <path d="M15,27.0117188 C16.6406332,27.0117188 18.1933521,26.6953157 19.6582031,26.0625 C21.1230542,25.4296843 22.4003852,24.5683648 23.4902344,23.4785156 C24.5800836,22.3886664 25.4414031,21.1171948 26.0742188,19.6640625 C26.7070344,18.2109302 27.0234375,16.6523521 27.0234375,14.9882812 C27.0234375,13.347648 26.7070344,11.7949292 26.0742188,10.3300781 C25.4414031,8.86522705 24.5800836,7.58789607 23.4902344,6.49804688 C22.4003852,5.40819768 21.1289135,4.54687816 19.6757812,3.9140625 C18.222649,3.28124684 16.6640708,2.96484375 15,2.96484375 C13.3593668,2.96484375 11.8066479,3.28124684 10.3417969,3.9140625 C8.8769458,4.54687816 7.59961482,5.40819768 6.50976562,6.49804688 C5.41991643,7.58789607 4.55859691,8.86522705 3.92578125,10.3300781 C3.29296559,11.7949292 2.9765625,13.347648 2.9765625,14.9882812 C2.9765625,16.6523521 3.29296559,18.2109302 3.92578125,19.6640625 C4.55859691,21.1171948 5.41991643,22.3886664 6.50976562,23.4785156 C7.59961482,24.5683648 8.87108648,25.4296843 10.3242188,26.0625 C11.777351,26.6953157 13.3359292,27.0117188 15,27.0117188 L15,27.0117188 Z M15,0.01171875 C17.0625103,0.01171875 19.0078034,0.404292949 20.8359375,1.18945312 C22.6640716,1.9746133 24.2519464,3.0468682 25.5996094,4.40625 C26.9472724,5.7656318 28.0136679,7.35350654 28.7988281,9.16992188 C29.5839883,10.9863372 29.9765625,12.9257709 29.9765625,14.9882812 C29.9765625,17.0742292 29.5839883,19.0253815 28.7988281,20.8417969 C28.0136679,22.6582122 26.9472724,24.246087 25.5996094,25.6054688 C24.2519464,26.9648505 22.669931,28.0312461 20.8535156,28.8046875 C19.0371003,29.5781289 17.0859479,29.9648438 15,29.9648438 C12.9374897,29.9648438 10.9921966,29.5781289 9.1640625,28.8046875 C7.33592836,28.0312461 5.74805361,26.9648505 4.40039062,25.6054688 C3.05272764,24.246087 1.98633205,22.6582122 1.20117188,20.8417969 C0.416011699,19.0253815 0.0234375,17.0742292 0.0234375,14.9882812 C0.0234375,12.9257709 0.416011699,10.9863372 1.20117188,9.16992188 C1.98633205,7.35350654 3.05272764,5.7656318 4.40039062,4.40625 C5.74805361,3.0468682 7.33006904,1.9746133 9.14648438,1.18945312 C10.9628997,0.404292949 12.9140521,0.01171875 15,0.01171875 L15,0.01171875 Z M13.5234375,7.46484375 L16.4765625,7.46484375 L16.4765625,16.4648438 L13.5234375,16.4648438 L13.5234375,7.46484375 Z M13.5234375,19.4882812 L16.4765625,19.4882812 L16.4765625,22.5117188 L13.5234375,22.5117188 L13.5234375,19.4882812 Z"></path>
        </g>
    </g>
</svg>