<?xml version="1.0" encoding="UTF-8"?>
<svg width="17px" height="16px" viewBox="0 0 17 16" version="1.1" xmlns="http://www.w3.org/2000/svg" xmlns:xlink="http://www.w3.org/1999/xlink">
    <!-- Generator: Sketch 41.2 (35397) - http://www.bohemiancoding.com/sketch -->
    <title>icon-medium:hover</title>
    <desc>Created with Sketch.</desc>
    <defs></defs>
    <g id="Symbols" stroke="none" stroke-width="1" fill="none" fill-rule="evenodd">
        <g id="icon-medium:hover" fill="#FF04B4">
            <path d="M8.44255842,6.20438669 L5.78546705,1.89016627 C5.75822267,1.83973497 5.72810224,1.79084489 5.69532961,1.74381347 L5.6825547,1.72307132 L5.68121312,1.72389759 C5.50619666,1.48113124 5.25974814,1.29025969 4.97372681,1.19646271 L1.5153078,0.0623192016 C0.7442446,-0.19054094 -0.000617849353,0.355611888 3.8458158e-07,1.1669092 L0.0088166378,12.7363203 C0.00927585679,13.3389452 0.423006684,13.9147047 0.994738892,14.102769 L4.45685162,15.2415887 C5.22816228,15.4953019 5.97407549,14.9493923 5.97315966,14.137271 L5.96983284,11.1871637 L6.52960593,11.9691474 C6.63400036,12.1149828 6.78184887,12.2240602 6.95199576,12.2807717 L15.881224,15.2569649 C16.431622,15.4404176 17,15.0307445 17,14.4505783 L17,2.12557827 C17,1.75215072 16.7562753,1.4224578 16.3992656,1.3129488 L14.5118136,0.733992597 L12.4692644,0.0641651917 C11.835549,-0.14365355 11.1260872,0.172222475 10.8540476,0.783726002 L8.44255842,6.20438669 Z M9.52286578,7.95844157 L11.2798475,10.8111874 L14.9022057,2.64988536 L14.1586818,2.40424346 L13.8461873,2.30799687 L13.8481352,2.30164655 L12.2711761,1.78065829 L9.52286578,7.95844157 Z M12.4646955,12.332949 L15.3,13.2771581 L15.3,5.95017048 L12.4646955,12.332949 Z M5.96653411,8.2619612 L5.96333002,5.42069169 L9.64147903,11.3927654 L7.75889736,10.7658307 L5.96653411,8.2619612 Z M1.70057987,1.92670793 L4.25,2.75301499 L4.25,13.3950624 L1.70183908,12.5464709 L1.70057987,1.92670793 Z"></path>
        </g>
    </g>
</svg>