<?xml version="1.0" encoding="UTF-8"?>
<svg width="16px" height="16px" viewBox="0 0 16 16" version="1.1" xmlns="http://www.w3.org/2000/svg" xmlns:xlink="http://www.w3.org/1999/xlink">
    <!-- Generator: Sketch 41.2 (35397) - http://www.bohemiancoding.com/sketch -->
    <title>icon-facebook:hover</title>
    <desc>Created with Sketch.</desc>
    <defs></defs>
    <g id="Symbols" stroke="none" stroke-width="1" fill="none" fill-rule="evenodd">
        <g id="icon-facebook:hover" fill="#FF04B4">
            <path d="M9.6,14.4 L13.6039286,14.4 C14.0438679,14.4 14.4,14.0437928 14.4,13.6039286 L14.4,2.39607143 C14.4,1.95613211 14.0437928,1.6 13.6039286,1.6 L2.39607143,1.6 C1.95613211,1.6 1.6,1.95620723 1.6,2.39607143 L1.6,13.6039286 C1.6,14.0438679 1.95620723,14.4 2.39607143,14.4 L8,14.4 C8,14.5224031 8,14.3324868 8,14.0624338 C8,12.9248676 8,12.9248676 8,11.5597882 C8,10.5129427 8,10.3824826 8,9.66664878 L7.19960938,9.6 C6.75778158,9.6 6.39960938,9.2418278 6.39960938,8.8 C6.39960938,8.3581722 6.75778158,8 7.19960938,8 L8,8 C8,6.48255096 8.17133175,5.52618209 8.88309555,4.7295562 C9.58689957,3.94183911 10.4093544,3.6 11.2,3.6 C11.6418278,3.6 12,3.9581722 12,4.4 C12,4.8418278 11.6418278,5.2 11.2,5.2 C10.8503053,5.2 10.4654595,5.35995449 10.0762306,5.79559029 C9.72198283,6.1920743 9.6,6.87297894 9.6,8 L11.2,8 C11.6418278,8 12,8.3581722 12,8.8 C12,9.2418278 11.6418278,9.6 11.2,9.6 L9.6,9.6 C9.6,10.3824826 9.6,10.5129427 9.6,11.5597882 C9.6,12.9248676 9.6,12.9248676 9.6,14.0624338 C9.6,14.3324868 9.6,14.5224031 9.6,14.6619078 Z M0,13.6039286 C0,14.927599 1.07262716,16 2.39607143,16 L13.6039286,16 C14.927599,16 16,14.9273728 16,13.6039286 L16,2.39607143 C16,1.07240096 14.9273728,0 13.6039286,0 L2.39607143,0 C1.07240096,0 0,1.07262716 0,2.39607143 L0,13.6039286 Z"></path>
        </g>
    </g>
</svg>