<?xml version="1.0" encoding="UTF-8"?>
<svg width="16px" height="16px" viewBox="0 0 16 16" version="1.1" xmlns="http://www.w3.org/2000/svg" xmlns:xlink="http://www.w3.org/1999/xlink">
    <!-- Generator: Sketch 41.2 (35397) - http://www.bohemiancoding.com/sketch -->
    <title>icon-close</title>
    <desc>Created with Sketch.</desc>
    <defs></defs>
    <g id="Symbols" stroke="none" stroke-width="1" fill="none" fill-rule="evenodd">
        <g id="icon-close" fill="#FFFFFF">
            <path d="M10.7580952,8.03047619 L15.7714286,3.09333333 C16.1371447,2.737776 16.32,2.3111136 16.32,1.81333333 C16.32,1.31555307 16.1371447,0.888890667 15.7714286,0.533333333 C15.4158712,0.177776 14.9841295,0 14.4761905,0 C13.9682514,0 13.5365097,0.177776 13.1809524,0.533333333 L8.15238095,5.47047619 L3.13904762,0.533333333 C2.7733315,0.177776 2.33905013,0 1.83619048,0 C1.33333082,0 0.899049448,0.177776 0.533333333,0.533333333 C0.177776,0.888890667 0,1.31555307 0,1.81333333 C0,2.3111136 0.177776,2.737776 0.533333333,3.09333333 L5.56190476,8.03047619 L0.60952381,12.9066667 C0.253966476,13.262224 0.0761904762,13.6888864 0.0761904762,14.1866667 C0.0761904762,14.6844469 0.253966476,15.1111093 0.60952381,15.4666667 C0.965081143,15.822224 1.39682286,16 1.9047619,16 C2.41270095,16 2.84444267,15.822224 3.2,15.4666667 L8.15238095,10.5904762 L13.1047619,15.4666667 C13.4603192,15.822224 13.892061,16 14.4,16 C14.907939,16 15.3396808,15.822224 15.6952381,15.4666667 C16.0609542,15.1111093 16.2438095,14.6844469 16.2438095,14.1866667 C16.2438095,13.6888864 16.0609542,13.262224 15.6952381,12.9066667 L10.7580952,8.03047619 Z" id="&gt;"></path>
        </g>
    </g>
</svg>