<?xml version="1.0" encoding="UTF-8"?>
<svg width="29px" height="34px" viewBox="0 0 29 34" version="1.1" xmlns="http://www.w3.org/2000/svg" xmlns:xlink="http://www.w3.org/1999/xlink">
    <!-- Generator: Sketch 41.2 (35397) - http://www.bohemiancoding.com/sketch -->
    <title>icon-mobile</title>
    <desc>Created with Sketch.</desc>
    <defs></defs>
    <g id="Symbols" stroke="none" stroke-width="1" fill="none" fill-rule="evenodd">
        <g id="icon-mobile" fill="#181818">
            <path d="M18.5234375,27.4648438 L18.5234375,6.51171875 L3.4765625,6.51171875 L3.4765625,27.4648438 L18.5234375,27.4648438 Z M18.5234375,0.53515625 C19.3203165,0.53515625 20.0117158,0.82812207 20.5976562,1.4140625 C21.1835967,2.00000293 21.4765625,2.69140227 21.4765625,3.48828125 L21.4765625,30.4882812 C21.4765625,31.3085979 21.189456,32.0175751 20.6152344,32.6152344 C20.0410128,33.2128936 19.3437541,33.5117188 18.5234375,33.5117188 L3.4765625,33.5117188 C2.67968352,33.5117188 1.98828418,33.2128936 1.40234375,32.6152344 C0.81640332,32.0175751 0.5234375,31.3085979 0.5234375,30.4882812 L0.5234375,3.48828125 C0.5234375,2.69140227 0.810544004,1.9882843 1.38476562,1.37890625 C1.95898725,0.769528203 2.6562459,0.46484375 3.4765625,0.46484375 L18.5234375,0.53515625 Z"></path>
        </g>
    </g>
</svg>