<?xml version="1.0" encoding="UTF-8"?>
<svg width="26px" height="34px" viewBox="0 0 26 34" version="1.1" xmlns="http://www.w3.org/2000/svg" xmlns:xlink="http://www.w3.org/1999/xlink">
    <!-- Generator: Sketch 41.2 (35397) - http://www.bohemiancoding.com/sketch -->
    <title>icon-attachment</title>
    <desc>Created with Sketch.</desc>
    <defs></defs>
    <g id="Symbols" stroke="none" stroke-width="1" fill="none" fill-rule="evenodd">
        <g id="icon-attachment" fill="#181818">
            <path d="M14.2734375,8.0234375 L16.5234375,8.0234375 L16.5234375,25.25 C16.5234375,26.3984432 16.3066428,27.4765575 15.8730469,28.484375 C15.439451,29.4921925 14.8535193,30.37109 14.1152344,31.1210938 C13.3769494,31.8710975 12.5097706,32.4628885 11.5136719,32.8964844 C10.5175731,33.3300803 9.44531824,33.546875 8.296875,33.546875 C7.14843176,33.546875 6.07031754,33.3300803 5.0625,32.8964844 C4.05468246,32.4628885 3.175785,31.8710975 2.42578125,31.1210938 C1.6757775,30.37109 1.08398654,29.4921925 0.650390625,28.484375 C0.216794707,27.4765575 0,26.3984432 0,25.25 L0,6.546875 C0,4.9062418 0.591790957,3.48828723 1.77539062,2.29296875 C2.95899029,1.09765027 4.38280418,0.5 6.046875,0.5 C7.6875082,0.5 9.09374414,1.09765027 10.265625,2.29296875 C11.4375059,3.48828723 12.0234375,4.9062418 12.0234375,6.546875 L12.0234375,22.296875 C12.0234375,23.3281302 11.6601599,24.2070276 10.9335938,24.9335938 C10.2070276,25.6601599 9.32813016,26.0234375 8.296875,26.0234375 C7.28905746,26.0234375 6.40430068,25.6601599 5.64257812,24.9335938 C4.88085557,24.2070276 4.5,23.3281302 4.5,22.296875 L4.5,8.0234375 L6.75,8.0234375 L6.75,22.296875 C6.75,22.7187521 6.90234223,23.0703111 7.20703125,23.3515625 C7.51172027,23.6328139 7.87499789,23.7734375 8.296875,23.7734375 C8.71875211,23.7734375 9.07031109,23.6328139 9.3515625,23.3515625 C9.63281391,23.0703111 9.7734375,22.7187521 9.7734375,22.296875 L9.7734375,6.546875 C9.7734375,5.53905746 9.41015988,4.65430068 8.68359375,3.89257812 C7.95702762,3.13085557 7.07813016,2.75 6.046875,2.75 C5.03905746,2.75 4.15430068,3.13085557 3.39257812,3.89257812 C2.63085557,4.65430068 2.25,5.53905746 2.25,6.546875 L2.25,25.25 C2.25,26.9140708 2.84179096,28.3378847 4.02539062,29.5214844 C5.20899029,30.705084 6.63280418,31.296875 8.296875,31.296875 C9.9375082,31.296875 11.3437441,30.705084 12.515625,29.5214844 C13.6875059,28.3378847 14.2734375,26.9140708 14.2734375,25.25 L14.2734375,8.0234375 Z"></path>
        </g>
    </g>
</svg>