<?xml version="1.0" encoding="UTF-8"?>
<svg width="25px" height="25px" viewBox="0 0 25 25" version="1.1" xmlns="http://www.w3.org/2000/svg" xmlns:xlink="http://www.w3.org/1999/xlink">
    <!-- Generator: Sketch 41.2 (35397) - http://www.bohemiancoding.com/sketch -->
    <title>icon-grid</title>
    <desc>Created with Sketch.</desc>
    <defs></defs>
    <g id="Symbols" stroke="none" stroke-width="1" fill="none" fill-rule="evenodd">
        <g id="icon-grid" fill="#181818">
            <path d="M18,24.296875 L18,18.25 L24.046875,18.25 L24.046875,24.296875 L18,24.296875 Z M18,15.296875 L18,9.25 L24.046875,9.25 L24.046875,15.296875 L18,15.296875 Z M9,6.296875 L9,0.25 L15.046875,0.25 L15.046875,6.296875 L9,6.296875 Z M18,0.25 L24.046875,0.25 L24.046875,6.296875 L18,6.296875 L18,0.25 Z M9,15.296875 L9,9.25 L15.046875,9.25 L15.046875,15.296875 L9,15.296875 Z M0,15.296875 L0,9.25 L6.046875,9.25 L6.046875,15.296875 L0,15.296875 Z M0,24.296875 L0,18.25 L6.046875,18.25 L6.046875,24.296875 L0,24.296875 Z M9,24.296875 L9,18.25 L15.046875,18.25 L15.046875,24.296875 L9,24.296875 Z M0,6.296875 L0,0.25 L6.046875,0.25 L6.046875,6.296875 L0,6.296875 Z"></path>
        </g>
    </g>
</svg>