<?xml version="1.0" encoding="UTF-8"?>
<svg width="16px" height="16px" viewBox="0 0 16 16" version="1.1" xmlns="http://www.w3.org/2000/svg" xmlns:xlink="http://www.w3.org/1999/xlink">
    <!-- Generator: Sketch 41.2 (35397) - http://www.bohemiancoding.com/sketch -->
    <title>icon-google</title>
    <desc>Created with Sketch.</desc>
    <defs></defs>
    <g id="Symbols" stroke="none" stroke-width="1" fill="none" fill-rule="evenodd">
        <g id="icon-google" fill="#272727">
            <path d="M15.1111111,7.11111111 C15.6020309,7.11111111 16,7.50908022 16,8 C16,12.418278 12.418278,16 8,16 C3.581722,16 0,12.418278 0,8 C0,3.581722 3.581722,0 8,0 C9.82294799,0 11.5547713,0.612596229 12.9559062,1.71958147 C13.3411101,2.02391701 13.406667,2.58289923 13.1023314,2.96810322 C12.7979959,3.3533072 12.2390137,3.41886404 11.8538097,3.1145285 C10.7637765,2.25333326 9.41937044,1.77777778 8,1.77777778 C4.56356156,1.77777778 1.77777778,4.56356156 1.77777778,8 C1.77777778,11.4364384 4.56356156,14.2222222 8,14.2222222 C11.1346417,14.2222222 13.7278946,11.9042615 14.1592099,8.88888889 L8.88624901,8.88888889 C8.3967872,8.88888889 8,8.49434238 8,8 C8,7.50908022 8.40269894,7.11111111 8.88624901,7.11111111 L15.1111111,7.11111111 Z"></path>
        </g>
    </g>
</svg>