<?xml version="1.0" encoding="UTF-8"?>
<svg width="36px" height="28px" viewBox="0 0 36 28" version="1.1" xmlns="http://www.w3.org/2000/svg" xmlns:xlink="http://www.w3.org/1999/xlink">
    <!-- Generator: Sketch 41.2 (35397) - http://www.bohemiancoding.com/sketch -->
    <title>icon-cloud</title>
    <desc>Created with Sketch.</desc>
    <defs></defs>
    <g id="Symbols" stroke="none" stroke-width="1" fill="none" fill-rule="evenodd">
        <g id="icon-cloud" fill="#181818">
            <path d="M28.4765625,21.5234375 C29.6953186,21.5234375 30.7499955,21.0839888 31.640625,20.2050781 C32.5312545,19.3261675 32.9765625,18.2656312 32.9765625,17.0234375 C32.9765625,15.8046814 32.5371138,14.7500045 31.6582031,13.859375 C30.7792925,12.9687455 29.7187562,12.5234375 28.4765625,12.5234375 L26.2265625,12.5234375 L26.2265625,11.75 C26.2265625,10.6249944 26.0097678,9.55859879 25.5761719,8.55078125 C25.142576,7.54296371 24.5566443,6.66992557 23.8183594,5.93164062 C23.0800744,5.19335568 22.2128956,4.60742404 21.2167969,4.17382812 C20.2206981,3.74023221 19.1484432,3.5234375 18,3.5234375 C16.6640558,3.5234375 15.4218807,3.82226264 14.2734375,4.41992188 C13.1249943,5.01758111 12.1640664,5.82030746 11.390625,6.828125 C12.3281297,7.10937641 13.2011678,7.52538787 14.0097656,8.07617188 C14.8183634,8.62695588 15.5214814,9.28319932 16.1191406,10.0449219 C16.7167999,10.8066444 17.1796859,11.6562453 17.5078125,12.59375 C17.8359391,13.5312547 18,14.5156198 18,15.546875 L14.9765625,15.546875 C14.9765625,13.9062418 14.3964902,12.4882872 13.2363281,11.2929688 C12.0761661,10.0976503 10.6640708,9.5 9,9.5 C7.3593668,9.5 5.95313086,10.0976503 4.78125,11.2929688 C3.60936914,12.4882872 3.0234375,13.9062418 3.0234375,15.546875 C3.0234375,17.2109458 3.60350982,18.6230411 4.76367188,19.7832031 C5.92383393,20.9433652 7.33592918,21.5234375 9,21.5234375 L28.4765625,21.5234375 Z M29.0390625,9.5703125 C30.0000048,9.64062535 30.9023395,9.88671664 31.7460938,10.3085938 C32.589848,10.7304709 33.3281218,11.2753873 33.9609375,11.9433594 C34.5937532,12.6113315 35.0917951,13.3789019 35.4550781,14.2460938 C35.8183612,15.1132856 36,16.0390576 36,17.0234375 C36,18.0781303 35.8007832,19.0624954 35.4023438,19.9765625 C35.0039043,20.8906296 34.4648471,21.6874966 33.7851562,22.3671875 C33.1054654,23.0468784 32.3085983,23.5800762 31.3945312,23.9667969 C30.4804642,24.3535176 29.5078177,24.546875 28.4765625,24.546875 L9,24.546875 C7.75780629,24.546875 6.58594301,24.3125023 5.484375,23.84375 C4.38280699,23.3749977 3.42773842,22.7363322 2.61914062,21.9277344 C1.81054283,21.1191366 1.17187734,20.1699273 0.703125,19.0800781 C0.234372656,17.9902289 0,16.8125063 0,15.546875 C0,14.3984318 0.205076074,13.3085989 0.615234375,12.2773438 C1.02539268,11.2460886 1.59374637,10.3320352 2.3203125,9.53515625 C3.04687863,8.73827727 3.89647951,8.08789314 4.86914062,7.58398438 C5.84180174,7.08007561 6.89061937,6.7578132 8.015625,6.6171875 C8.48437734,5.72655805 9.06444967,4.90625375 9.75585938,4.15625 C10.4472691,3.40624625 11.2206988,2.76172145 12.0761719,2.22265625 C12.9316449,1.68359105 13.8574169,1.26172027 14.8535156,0.95703125 C15.8496144,0.652342227 16.898432,0.5 18,0.5 C19.3593818,0.5 20.6542907,0.72851334 21.8847656,1.18554688 C23.1152405,1.64258041 24.216792,2.27538658 25.1894531,3.08398438 C26.1621142,3.89258217 26.9824185,4.85351006 27.6503906,5.96679688 C28.3183627,7.08008369 28.7812487,8.28124355 29.0390625,9.5703125 L29.0390625,9.5703125 Z"></path>
        </g>
    </g>
</svg>