<?xml version="1.0" encoding="UTF-8"?>
<svg width="34px" height="31px" viewBox="0 0 34 31" version="1.1" xmlns="http://www.w3.org/2000/svg" xmlns:xlink="http://www.w3.org/1999/xlink">
    <!-- Generator: Sketch 41.2 (35397) - http://www.bohemiancoding.com/sketch -->
    <title>icon-clock</title>
    <desc>Created with Sketch.</desc>
    <defs></defs>
    <g id="Symbols" stroke="none" stroke-width="1" fill="none" fill-rule="evenodd">
        <g id="icon-clock" fill="#181818">
            <path d="M15,27.7617188 C16.4531323,27.7617188 17.818353,27.4863309 19.0957031,26.9355469 C20.3730533,26.3847629 21.4863234,25.6347704 22.4355469,24.6855469 C23.3847704,23.7363234 24.1289036,22.6230533 24.6679688,21.3457031 C25.2070339,20.068353 25.4765625,18.6914136 25.4765625,17.2148438 C25.4765625,15.7617115 25.2070339,14.3964908 24.6679688,13.1191406 C24.1289036,11.8417905 23.3847704,10.7343797 22.4355469,9.796875 C21.4863234,8.85937031 20.3730533,8.11523713 19.0957031,7.56445312 C17.818353,7.01366912 16.4531323,6.73828125 15,6.73828125 C13.5468677,6.73828125 12.181647,7.01366912 10.9042969,7.56445312 C9.62694674,8.11523713 8.51367662,8.85937031 7.56445312,9.796875 C6.61522963,10.7343797 5.87109645,11.8417905 5.33203125,13.1191406 C4.79296605,14.3964908 4.5234375,15.7617115 4.5234375,17.2148438 C4.5234375,18.6914136 4.79296605,20.068353 5.33203125,21.3457031 C5.87109645,22.6230533 6.61522963,23.7363234 7.56445312,24.6855469 C8.51367662,25.6347704 9.62694674,26.3847629 10.9042969,26.9355469 C12.181647,27.4863309 13.5468677,27.7617188 15,27.7617188 L15,27.7617188 Z M15,3.71484375 C16.8750094,3.71484375 18.6328043,4.06640273 20.2734375,4.76953125 C21.9140707,5.47265977 23.3437439,6.43358766 24.5625,7.65234375 C25.7812561,8.87109984 26.742184,10.300773 27.4453125,11.9414062 C28.148441,13.5820395 28.5,15.3398344 28.5,17.2148438 C28.5,19.1132907 28.148441,20.8828043 27.4453125,22.5234375 C26.742184,24.1640707 25.7812561,25.5937439 24.5625,26.8125 C23.3437439,28.0312561 21.9140707,28.9863247 20.2734375,29.6777344 C18.6328043,30.3691441 16.8750094,30.7148438 15,30.7148438 C13.1249906,30.7148438 11.3671957,30.3691441 9.7265625,29.6777344 C8.0859293,28.9863247 6.65625609,28.0312561 5.4375,26.8125 C4.21874391,25.5937439 3.25781602,24.1640707 2.5546875,22.5234375 C1.85155898,20.8828043 1.5,19.1132907 1.5,17.2148438 C1.5,15.3398344 1.85155898,13.5820395 2.5546875,11.9414062 C3.25781602,10.300773 4.21874391,8.87109984 5.4375,7.65234375 C6.65625609,6.43358766 8.0859293,5.47265977 9.7265625,4.76953125 C11.3671957,4.06640273 13.1249906,3.71484375 15,3.71484375 L15,3.71484375 Z M15.7734375,9.76171875 L15.7734375,17.7070312 L21.75,21.2929688 L20.5546875,23.1210938 L13.5234375,18.7617188 L13.5234375,9.76171875 L15.7734375,9.76171875 Z M8.8828125,2.87109375 L1.921875,8.56640625 L0.0234375,6.31640625 L6.9140625,0.62109375 L8.8828125,2.87109375 Z M29.9765625,6.31640625 L28.078125,8.56640625 L21.1171875,2.66015625 L23.0859375,0.41015625 L29.9765625,6.31640625 Z"></path>
        </g>
    </g>
</svg>